<svg width="628" height="232" viewBox="0 0 628 232" fill="none" xmlns="http://www.w3.org/2000/svg">
<path d="M119.415 79.4518C127.573 83.0746 134.313 88.8078 139.633 96.6162C144.422 103.51 147.543 111.494 148.962 120.569C149.778 125.88 150.133 133.583 149.955 143.572H64.789C65.2501 155.214 69.3293 163.375 77.0266 168.053C81.7088 170.972 87.3132 172.414 93.8754 172.414C100.828 172.414 106.503 170.655 110.866 167.103C113.243 165.204 115.335 162.53 117.144 159.119H148.359C147.543 166.013 143.748 172.977 137.008 180.082C126.544 191.372 111.859 197 93.0241 197C77.4523 197 63.7248 192.252 51.842 182.72C39.9592 173.223 34 157.747 34 136.291C34 116.208 39.3562 100.802 50.1039 90.0741C60.8517 79.3463 74.7919 74 91.9245 74C102.105 74.0352 111.256 75.829 119.415 79.4518ZM73.6923 105.656C69.3648 110.088 66.669 116.067 65.5339 123.594H118.209C117.641 115.539 114.945 109.454 110.05 105.269C105.191 101.118 99.1252 99.008 91.9245 99.008C84.0854 99.0431 78.0198 101.224 73.6923 105.656Z" fill="#122046"/>
<path d="M186.018 156.129C186.656 161.501 188.076 165.328 190.241 167.611C194.038 171.649 201.101 173.65 211.392 173.65C217.426 173.65 222.217 172.772 225.801 170.981C229.35 169.226 231.124 166.557 231.124 163.011C231.124 159.605 229.705 157.042 226.83 155.251C223.955 153.495 213.309 150.44 194.819 146.122C181.511 142.856 172.141 138.783 166.711 133.902C161.282 129.092 158.549 122.14 158.549 113.081C158.549 102.406 162.808 93.2067 171.29 85.517C179.772 77.8273 191.731 74 207.169 74C221.791 74 233.715 76.8792 242.942 82.6377C252.17 88.3962 257.457 98.3683 258.806 112.519H228.214C227.788 108.621 226.688 105.531 224.878 103.284C221.507 99.1758 215.758 97.1393 207.666 97.1393C200.994 97.1393 196.238 98.1576 193.399 100.229C190.56 102.266 189.141 104.689 189.141 107.462C189.141 110.939 190.631 113.432 193.648 115.012C196.664 116.627 207.311 119.436 225.588 123.404C237.761 126.248 246.917 130.531 252.986 136.255C258.983 142.048 262 149.317 262 158.025C262 169.507 257.67 178.847 249.046 186.115C240.422 193.383 227.043 197 208.979 197C190.56 197 176.932 193.173 168.167 185.483C159.401 177.793 155 167.997 155 156.129H186.018Z" fill="#122046"/>
<path d="M269 100.701V78.7924H285.18V46H315.182V78.7924H334V100.701H315.182V162.861C315.182 167.678 315.78 170.675 316.976 171.888C318.172 173.066 321.865 173.673 328.056 173.673C328.97 173.673 329.955 173.672 330.975 173.601C331.995 173.565 333.015 173.53 334 173.423V196.402L319.649 196.938C305.334 197.437 295.521 194.939 290.28 189.373C286.868 185.84 285.18 180.417 285.18 173.066V100.666H269V100.701Z" fill="#122046"/>
<path d="M396.387 122.743C402.064 122.035 406.144 121.15 408.592 120.053C412.992 118.212 415.191 115.31 415.191 111.381C415.191 106.603 413.488 103.311 410.118 101.47C406.747 99.63 401.78 98.7452 395.287 98.7452C387.978 98.7452 382.762 100.515 379.746 104.09C377.582 106.744 376.127 110.284 375.382 114.779H345.862C346.501 104.585 349.374 96.1968 354.484 89.6134C362.609 79.349 376.553 74.2168 396.316 74.2168C409.16 74.2168 420.585 76.7652 430.59 81.8266C440.596 86.888 445.563 96.4445 445.563 110.496V164.013C445.563 167.729 445.634 172.224 445.776 177.498C445.989 181.497 446.592 184.223 447.585 185.639C448.579 187.054 450.105 188.258 452.092 189.178V197H418.81C417.888 194.629 417.249 189.107 416.894 187.019C416.54 184.966 416.256 182.595 416.043 179.94C411.785 184.506 406.889 188.399 401.354 191.62C394.719 195.407 387.233 197.283 378.895 197.283C368.25 197.283 359.451 194.275 352.497 188.222C345.543 182.17 342.065 173.64 342.065 162.597C342.065 148.262 347.636 137.856 358.812 131.45C364.95 127.946 373.963 125.468 385.849 123.946L396.387 122.743ZM415.085 136.971C413.133 138.175 411.147 139.166 409.16 139.909C407.173 140.652 404.441 141.36 400.964 141.997L394.009 143.271C387.481 144.404 382.797 145.82 379.959 147.448C375.134 150.244 372.721 154.562 372.721 160.402C372.721 165.605 374.176 169.393 377.121 171.693C380.065 174.029 383.649 175.162 387.871 175.162C394.541 175.162 400.715 173.251 406.357 169.393C411.998 165.535 414.907 158.526 415.12 148.297V136.971H415.085Z" fill="#122046"/>
<path d="M516.864 34.1447C518.411 34.2533 520.555 34.4344 523.227 34.6515V60.0626C521.539 59.8454 518.657 59.6644 514.685 59.5558C510.677 59.4472 507.9 60.3521 506.389 62.3068C504.877 64.2615 504.104 66.3611 504.104 68.714C504.104 71.0668 504.104 74.3971 504.104 78.777H524V100.785H504.104V197H474.014V100.785H457V78.777H473.592V71.103C473.592 58.3251 475.666 49.529 479.849 44.7146C484.243 37.5474 494.824 34 511.626 34C513.56 34 515.317 34.0361 516.864 34.1447Z" fill="#122046"/>
<path d="M586.758 34.1447C588.327 34.2533 590.504 34.4344 593.215 34.6515V60.0626C591.503 59.8454 588.577 59.6644 584.546 59.5558C580.478 59.4472 577.66 60.3521 576.126 62.3068C574.592 64.2615 573.807 66.3611 573.807 68.714C573.807 71.0668 573.807 74.3971 573.807 78.777H594V100.785H573.807V197H543.268V100.785H526V78.777H542.84V71.103C542.84 58.3251 544.944 49.529 549.19 44.7146C553.649 37.5474 564.388 34 581.442 34C583.44 34 585.188 34.0361 586.758 34.1447Z" fill="#122046"/>
</svg>
